# xmcd
#
# Track frame offsets:
#	150
#	11638
#	28810
#	52138
#	82148
#	102870
#	125778
#	141560
#	157583
#	173885
#	195995
#	217953
#
# Disc length: 3085 seconds
#
# Revision: 0
# Processed by: cddbd v1.4PL0 Copyright (c) Steve Scherf et al.
# Submitted via: dBpowerAMP V4.0
#
DISCID=a70c0b0c
DTITLE=Reddog - Standing in the Shadows
DYEAR=1989
DGENRE=Blues
TTITLE0=Farewell Song
TTITLE1=Standing in the Shadows
TTITLE2=Honest Man
TTITLE3=Was It You
TTITLE4=Nobody Knows Your Name
TTITLE5=The Twilight
TTITLE6=I Don't Live Today
TTITLE7=Back in the Snake Pit
TTITLE8=Turn Me Baby
TTITLE9=Ain't Doin' Too Bad
TTITLE10=Down, Down, Down
TTITLE11=Juke Jumper
EXTD=
EXTT0=
EXTT1=
EXTT2=
EXTT3=
EXTT4=
EXTT5=
EXTT6=
EXTT7=
EXTT8=
EXTT9=
EXTT10=
EXTT11=
PLAYORDER=
